<svg width="1920" height="1080" viewBox="0 0 1920 1080" xmlns="http://www.w3.org/2000/svg"><path d="M2526.737236466293,53.999999999999815C2520.9039031329594,191.5547786320563,2587.616849541916,261.6369954009083,2514.5333323392333,382.2379645274343C2441.4498151365506,502.83893365396034,2240.2168834300574,749.4949743081194,2088.236133250198,777.605814759156C1936.255383070338,805.7166552101927,1743.1497644000128,649.9566757030037,1602.6488312600748,550.9030072336544C1462.1478981201367,451.8493387643052,1251.043342176778,313.6868230643781,1245.230534410569,183.2838039430604C1239.4177266443598,52.880784821742736,1485.0411295276813,-116.67445006786564,1567.7719846628208,-231.51510749425148C1650.5028397979604,-346.35576492063734,1658.845730162365,-429.4116894044372,1741.6156652214065,-505.7601406152546C1824.385600280448,-582.108591826072,1929.738650497432,-700.0507203175478,2064.39159501707,-689.6058147591561C2199.044539536708,-679.1609092007645,2472.4757254310293,-567.025009724764,2549.5333323392333,-443.09070726490467C2626.5909392474373,-319.1564048050453,2532.5705697996264,-83.55477863205668,2526.737236466293,53.999999999999815C2520.9039031329594,191.5547786320563,2587.616849541916,261.6369954009083,2514.5333323392333,382.2379645274343" fill="#5f9595"/></svg>